<svg data-v-fde0c5aa="" xmlns="http://www.w3.org/2000/svg" viewBox="0 0 300 300" class="iconLeft"><!----><defs data-v-fde0c5aa=""><!----></defs><rect data-v-fde0c5aa="" fill="transparent" x="0" y="0" width="300px" height="300px" class="logo-background-square"></rect><defs data-v-fde0c5aa=""><!----></defs><g data-v-fde0c5aa="" id="e095efe5-ecc7-4b50-b117-bad1dfb2b947" fill="#000000" transform="matrix(2.0383744525370897,0,0,2.0383744525370897,91.0391409293803,131.32848935381884)"><path d="M10.50 10.08L8.93 10.08C8.58 11.63 7.28 12.73 5.56 12.73C3.54 12.73 2.09 11.21 2.09 9.14C2.09 7.07 3.54 5.59 5.56 5.59C7.29 5.59 8.58 6.66 8.93 8.20L10.50 8.20C10.12 5.82 8.16 4.19 5.56 4.19C2.65 4.19 0.53 6.27 0.53 9.14C0.53 12.04 2.65 14.13 5.56 14.13C8.16 14.13 10.14 12.47 10.50 10.08ZM15.19 6.99C13.06 6.99 11.51 8.48 11.51 10.56C11.51 12.63 13.06 14.13 15.19 14.13C17.32 14.13 18.86 12.63 18.86 10.56C18.86 8.48 17.32 6.99 15.19 6.99ZM15.18 8.23C16.46 8.23 17.39 9.21 17.39 10.56C17.39 11.91 16.46 12.88 15.18 12.88C13.90 12.88 12.98 11.91 12.98 10.56C12.98 9.21 13.90 8.23 15.18 8.23ZM26.43 7.11L25.00 7.11L25.00 11.16C25.00 12.24 24.32 12.94 23.28 12.94C22.25 12.94 21.57 12.24 21.57 11.16L21.57 7.11L20.15 7.11L20.15 11.16C20.15 12.92 21.42 14.13 23.30 14.13C25.16 14.13 26.43 12.92 26.43 11.16ZM29.55 8.72L29.55 7.11L28.13 7.11L28.13 14L29.55 14L29.55 10.60C29.55 9.18 30.55 8.34 32.14 8.34L32.14 6.93C30.93 6.93 30.02 7.59 29.55 8.72ZM35.70 6.99C34.09 6.99 33.00 7.81 33.00 9.06C33.00 10.68 34.64 10.99 35.67 11.14C36.46 11.28 37.14 11.40 37.14 12.11C37.14 12.68 36.57 13.06 35.77 13.06C34.92 13.06 34.30 12.63 34.27 11.97L32.87 11.97C32.89 13.24 34.06 14.13 35.73 14.13C37.38 14.13 38.56 13.27 38.56 12.03C38.56 10.37 36.82 10.08 35.84 9.90C35.04 9.74 34.41 9.63 34.41 8.92C34.41 8.40 34.94 8.04 35.67 8.04C36.47 8.04 37.02 8.46 37.04 9.07L38.39 9.07C38.39 7.84 37.27 6.99 35.70 6.99ZM46.94 10.57C46.93 8.48 45.40 6.99 43.27 6.99C41.15 6.99 39.59 8.48 39.59 10.56C39.59 12.63 41.15 14.13 43.27 14.13C44.97 14.13 46.44 13.03 46.83 11.51L45.37 11.51C45.11 12.33 44.27 12.95 43.29 12.95C42.10 12.95 41.19 12.15 41.01 11.00L46.90 11.00C46.93 10.86 46.94 10.71 46.94 10.57ZM43.29 8.16C44.42 8.16 45.33 8.88 45.57 9.90L41.05 9.90C41.30 8.86 42.17 8.16 43.29 8.16ZM61.75 10.08L60.19 10.08C59.84 11.63 58.53 12.73 56.81 12.73C54.80 12.73 53.34 11.21 53.34 9.14C53.34 7.07 54.80 5.59 56.81 5.59C58.55 5.59 59.84 6.66 60.19 8.20L61.75 8.20C61.38 5.82 59.42 4.19 56.81 4.19C53.90 4.19 51.79 6.27 51.79 9.14C51.79 12.04 53.90 14.13 56.81 14.13C59.42 14.13 61.39 12.47 61.75 10.08ZM70.67 11.84C70.63 10.61 70.06 9.84 69.08 9.55C70.13 9.16 70.76 8.26 70.76 7.06C70.76 5.38 69.55 4.31 67.66 4.31L63.31 4.31L63.31 14L64.83 14L64.83 10.23L67.63 10.23C68.56 10.23 69.12 10.95 69.15 12.03C69.16 12.82 69.20 13.66 69.27 14L70.87 14C70.76 13.65 70.70 12.74 70.67 11.84ZM67.51 9.00L64.83 9.00L64.83 5.67L67.51 5.67C68.54 5.67 69.19 6.30 69.19 7.32C69.19 8.34 68.54 9.00 67.51 9.00ZM80.64 4.31L77.69 12.03L74.73 4.31L72.48 4.31L72.48 14L74.00 14L74.00 6.17L76.99 14L78.39 14L81.37 6.17L81.37 14L82.89 14L82.89 4.31Z"></path></g><defs data-v-fde0c5aa=""><linearGradient data-v-fde0c5aa="" gradientTransform="rotate(25)" id="fdacaec8-991a-4068-a447-ec0cca97684c" x1="0%" y1="0%" x2="100%" y2="0%"><stop data-v-fde0c5aa="" offset="0%" stop-color="#0D7CE9" stop-opacity="1"></stop><stop data-v-fde0c5aa="" offset="100%" stop-color="#15CFF1" stop-opacity="1"></stop></linearGradient></defs><g data-v-fde0c5aa="" id="fe852642-f5ba-4f9d-a599-9acd365b112a" stroke="none" fill="url(#fdacaec8-991a-4068-a447-ec0cca97684c)" transform="matrix(0.4346631605595348,0,0,0.4346631605595348,37.82652833501554,128.26701814603757)"><path d="M94.597 78.001S83.096 49.373 80.569 47.935c-2.036-1.159-13.042-28.205-12.93-28.457-.896-1.801-3.979-4.439-7.899-4.439-8.247 0-13.083 6.797-13.844 7.585l-15.09 22.37c-.374.563-1.682 2.387-1.979 2.918 0 0-10.386 17.994-10.571 18.154L5.835 81.032c-.717.622-1.049 1.638-.687 2.516.601 1.457 2.323 1.821 3.439.931 0 0 13.706-14.391 14.082-14.887l12.546-16.581c2.632.639 7.344-.932 9.224-3.874L53.3 33.672c.13-.226 2.562-2.757 3.702-4.44a.817.817 0 0 1 1.368.015l14.761 23.094c1.828 1.309 16.86 28.211 16.86 28.211 1.144 2.058 2.451 1.939 3.655 1.124 1.111-.753 1.853-1.691.951-3.675z"></path><path d="M33.963 56.617l-9.245 12.219a7.696 7.696 0 0 0 5.4 2.205 7.727 7.727 0 0 0 7.727-7.727 7.718 7.718 0 0 0-3.882-6.697z"></path></g><!----></svg>